<svg width="195" height="32" viewBox="0 0 195 32" fill="none" xmlns="http://www.w3.org/2000/svg">
<path fill-rule="evenodd" clip-rule="evenodd" d="M15 1C14.3529 1 13.7304 1.24453 13.2602 1.6834L1.76973 12.4042C1.21076 12.9256 0.76542 13.5542 0.46113 14.2514C0.15683 14.9486 -7.99694e-05 15.6998 3.05754e-08 16.459V28.4998C3.05754e-08 29.1629 0.26681 29.7988 0.74174 30.2677C1.21667 30.7366 1.86082 31 2.53247 31H27.4675C28.1392 31 28.7833 30.7366 29.2583 30.2677C29.7332 29.7988 30 29.1629 30 28.4998V16.459C30.0001 15.6998 29.8432 14.9486 29.5389 14.2514C29.2346 13.5542 28.7893 12.9256 28.2303 12.4043L16.7399 1.68348C16.2697 1.24461 15.6471 1 15 1ZM23.1818 21.2359C23.1008 21.4765 21.1207 27.1536 15 27.1536C8.8793 27.1536 6.8992 21.4765 6.8182 21.2359L9.957 20.23C10.0083 20.3824 11.3008 23.9453 15 23.9453C18.7275 23.9453 20.0124 20.3212 20.0409 20.2408L20.0413 20.2397L23.1818 21.2359Z" fill="#0E7159"/>
<path fill-rule="evenodd" clip-rule="evenodd" d="M66.1882 1.56995H70.6169V29.1273C70.6169 29.8622 69.8177 30.0292 68.3859 30.0292C67.0207 30.0292 66.1882 29.8622 66.1882 29.1273V1.56995ZM59.462 12.8935V28.8267C59.462 29.5282 60.2612 29.6952 61.6264 29.6952C63.0249 29.6952 63.7908 29.5282 63.7908 28.8267V1.90398H59.462V8.98541H55.1666V12.8935H59.462ZM54.5672 22.5136C55.1317 23.2056 55.4008 23.0089 56.5427 22.1746C56.6133 22.123 56.6873 22.0689 56.7649 22.0125C57.8304 21.2109 58.0635 20.6764 57.564 20.0418C56.5318 18.8392 55.0001 16.6013 54.0678 14.4301C53.3019 12.5929 52.7025 10.4551 52.7025 8.35071V3.54072H48.0075V8.35071C48.0075 9.95411 47.7411 11.5908 47.3083 13.0939C46.5424 15.5992 44.9441 18.3716 43.2126 20.476C42.7131 21.0772 43.1127 21.6451 44.2115 22.4802C45.4436 23.4489 45.8431 23.6493 46.4425 22.9812C47.841 21.4113 49.6058 18.6722 50.5715 16.0334C51.5371 18.4718 53.202 20.9102 54.5672 22.5136Z" fill="#0E7159"/>
<path fill-rule="evenodd" clip-rule="evenodd" d="M99.776 1.56995H95.18V29.1942C95.18 29.9624 96.046 30.1294 97.445 30.1294C98.943 30.1294 99.776 29.929 99.776 29.1608V1.56995ZM87.5884 12.9269C87.5884 15.9332 85.8236 17.8372 83.3929 17.8372C80.9621 17.8372 79.1973 15.9332 79.1973 12.9269C79.1973 9.95411 80.9621 8.01671 83.3929 8.01671C85.8236 8.01671 87.5884 9.95411 87.5884 12.9269ZM83.3929 21.6785C78.3316 21.6785 74.7354 18.1712 74.7354 12.9269C74.7354 7.68271 78.3316 4.17537 83.3929 4.17537C88.4542 4.17537 92.0837 7.68271 92.0837 12.9269C92.0837 18.1712 88.4542 21.6785 83.3929 21.6785Z" fill="#0E7159"/>
<path fill-rule="evenodd" clip-rule="evenodd" d="M128.924 7.382C129.823 7.382 129.957 6.7808 129.957 5.47808C129.957 4.20877 129.823 3.54071 128.924 3.54071H107.547V7.382H111.443V14.8977H107.547V18.739H128.924C129.823 18.739 129.957 18.1378 129.957 16.8351C129.957 15.5658 129.823 14.8977 128.924 14.8977H125.361V7.382H128.924ZM104.484 23.1816V27.0898H132.054C132.953 27.0898 133.087 26.4551 133.087 25.1524C133.087 23.8831 132.953 23.1816 132.054 23.1816H104.484ZM115.871 14.8977H120.933V7.382H115.871V14.8977Z" fill="#0E7159"/>
<path fill-rule="evenodd" clip-rule="evenodd" d="M141.767 8.952C141.767 8.1169 142.067 7.3152 142.466 6.6138H138.803V3.03966H147.294V0H151.723V3.03966H159.648C160.547 3.03966 160.68 3.57411 160.68 4.84342C160.68 6.1461 160.547 6.6138 159.648 6.6138H156.385C156.784 7.3152 157.117 8.1169 157.117 8.952C157.117 11.7244 154.953 13.7954 151.889 14.4969V16.4342H163.011C163.91 16.4342 164.043 17.0021 164.043 18.2714C164.043 19.5741 163.91 20.0752 163.011 20.0752H135.44V16.4342H147.294V14.5637C144.064 13.929 141.767 11.8246 141.767 8.952ZM140.768 30.4635C140.102 29.7954 139.436 28.7599 139.436 28.0585V21.9457H159.748V29.4948C159.748 31.0647 158.982 32 157.384 32H143.498C142.699 32 141.534 31.2651 140.768 30.4635ZM144.464 28.4593C144.098 28.4593 143.931 28.3591 143.931 27.8914V25.4864H155.253V28.4593H144.464ZM149.425 11.2902C151.29 11.2902 152.622 10.4551 152.622 8.952C152.622 7.4489 151.29 6.6138 149.425 6.6138C147.594 6.6138 146.262 7.4489 146.262 8.952C146.262 10.4551 147.594 11.2902 149.425 11.2902Z" fill="#0E7159"/>
<path fill-rule="evenodd" clip-rule="evenodd" d="M170.093 7.61588V3.7077H190.272C191.171 3.7077 191.304 4.40916 191.304 5.67848C191.304 6.98118 191.171 7.61588 190.272 7.61588H182.913C183.046 8.01668 183.212 8.41748 183.446 8.75158C184.943 11.0054 187.911 12.6094 190.517 14.0175C190.924 14.2372 191.321 14.452 191.703 14.6639C192.369 15.0313 192.236 15.4321 191.504 16.7015C190.671 18.1712 190.505 18.3382 189.639 17.9708C186.809 16.7683 182.513 14.4969 180.449 11.5908C178.617 14.4635 173.689 17.3027 171.492 18.2714C170.692 18.6054 170.393 18.4718 169.594 17.0689C168.828 15.6994 168.628 15.1649 169.361 14.7641C171.725 13.4948 175.121 11.6576 176.719 9.55318C177.186 8.91858 177.585 8.31728 177.818 7.61588H170.093ZM166.397 27.0898V23.1816H193.968C194.867 23.1816 195 23.8831 195 25.1524C195 26.4551 194.867 27.0898 193.968 27.0898H166.397Z" fill="#0E7159"/>
</svg>
